<?xml version="1.0" encoding="utf-8"?>
<!-- Generator: Adobe Illustrator 25.2.1, SVG Export Plug-In . SVG Version: 6.00 Build 0)  -->
<svg version="1.1" id="Layer_1" xmlns="http://www.w3.org/2000/svg" xmlns:xlink="http://www.w3.org/1999/xlink" x="0px" y="0px"
	 viewBox="0 0 735 852" style="enable-background:new 0 0 735 852;" xml:space="preserve">
<style type="text/css">
	.st0{fill:#74A08A;}
	.st1{fill:#2F4238;}
	.st2{fill:#E6B35A;}
	.st3{fill:#FFFFFF;stroke:#000000;stroke-miterlimit:10;}
</style>
<path class="st0" d="M18.2,626.4V223.1l51.6-29.8L367.5,21.5l0,0l296.7,171.3l52.6,30.3v403.3L367.5,828L18.2,626.4z"/>
<path class="st1" d="M705.6,196.2L427.8,35.8L367.5,1l-60.3,34.8L29.4,196.2L0.1,213.1v424.2l29.3,16.9l281.3,162.4l56.9,32.8
	l56.9-32.8l281.3-162.4l29.3-16.9V213.1L705.6,196.2z M705.6,621.5L367.5,816.7L29.4,621.5V231L367.5,35.8l0,0L705.6,231V621.5z"/>
<path class="st2" d="M367,633.9c0.3-0.3,0.6-0.6,0.9-0.9h-0.3C367.5,633.3,367.3,633.6,367,633.9z"/>
<g>
	
		<image style="overflow:visible;opacity:0.75;" width="126" height="471" xlink:href="86D8A344EFFE5D4D.png"  transform="matrix(1 0 0 1 297 179)">
	</image>
	<g>
		<g>
			<path class="st3" d="M391.6,518.9c0,21.5-2.7,38.7-8,51.7c-5.3,13-13,23.5-23.2,31.6c-10.2,8.1-24.4,16.3-42.7,24.5l-11.9-29.6
				c11.5-5.3,20.3-10.5,26.5-15.7c6.2-5.2,10.8-12.4,13.9-21.7c3.1-9.3,4.6-22,4.6-38.2V300.1h40.7V518.9z M392,196.2
				c5.3,5.3,8,11.9,8,19.9s-2.7,14.5-8,19.7c-5.3,5.2-12.2,7.7-20.8,7.7c-8.3,0-15-2.6-20.3-7.7c-5.3-5.2-8-11.7-8-19.7
				s2.7-14.6,8-19.9c5.3-5.3,12.1-8,20.3-8C379.8,188.2,386.7,190.9,392,196.2z"/>
		</g>
	</g>
</g>
</svg>
